<mxfile host="app.diagrams.net" modified="2020-07-23T10:18:49.715Z" agent="5.0 (Windows NT 10.0; Win64; x64) AppleWebKit/537.36 (KHTML, like Gecko) Chrome/83.0.4103.106 YaBrowser/20.7.1.70 Yowser/2.5 Safari/537.36" etag="z6oSHrgrQNWCXRL64Zh9" version="13.5.1" type="github">
  <diagram id="t7dp-EHWlShn_RwowieZ" name="Page-1">
    <mxGraphModel dx="1422" dy="827" grid="1" gridSize="10" guides="1" tooltips="1" connect="1" arrows="1" fold="1" page="1" pageScale="1" pageWidth="827" pageHeight="1169" math="0" shadow="0">
      <root>
        <mxCell id="0" />
        <mxCell id="1" parent="0" />
        <mxCell id="BUDFuWpq01-Rm1eVjWCR-1" value="" style="rounded=0;whiteSpace=wrap;html=1;" vertex="1" parent="1">
          <mxGeometry x="120" y="180" width="120" height="100" as="geometry" />
        </mxCell>
        <mxCell id="BUDFuWpq01-Rm1eVjWCR-2" value="category" style="text;html=1;strokeColor=none;fillColor=none;align=center;verticalAlign=middle;whiteSpace=wrap;rounded=0;" vertex="1" parent="1">
          <mxGeometry x="120" y="180" width="120" height="20" as="geometry" />
        </mxCell>
        <mxCell id="BUDFuWpq01-Rm1eVjWCR-4" value="*id" style="text;html=1;strokeColor=none;fillColor=none;align=center;verticalAlign=middle;whiteSpace=wrap;rounded=0;" vertex="1" parent="1">
          <mxGeometry x="120" y="210" width="120" height="20" as="geometry" />
        </mxCell>
        <mxCell id="BUDFuWpq01-Rm1eVjWCR-5" value="name" style="text;html=1;strokeColor=none;fillColor=none;align=center;verticalAlign=middle;whiteSpace=wrap;rounded=0;" vertex="1" parent="1">
          <mxGeometry x="120" y="230" width="120" height="20" as="geometry" />
        </mxCell>
        <mxCell id="BUDFuWpq01-Rm1eVjWCR-6" value="img" style="text;html=1;strokeColor=none;fillColor=none;align=center;verticalAlign=middle;whiteSpace=wrap;rounded=0;" vertex="1" parent="1">
          <mxGeometry x="120" y="250" width="120" height="20" as="geometry" />
        </mxCell>
        <mxCell id="BUDFuWpq01-Rm1eVjWCR-7" value="" style="rounded=0;whiteSpace=wrap;html=1;" vertex="1" parent="1">
          <mxGeometry x="330" y="180" width="120" height="160" as="geometry" />
        </mxCell>
        <mxCell id="BUDFuWpq01-Rm1eVjWCR-8" value="product" style="text;html=1;strokeColor=none;fillColor=none;align=center;verticalAlign=middle;whiteSpace=wrap;rounded=0;" vertex="1" parent="1">
          <mxGeometry x="330" y="180" width="120" height="20" as="geometry" />
        </mxCell>
        <mxCell id="BUDFuWpq01-Rm1eVjWCR-12" style="edgeStyle=orthogonalEdgeStyle;rounded=0;orthogonalLoop=1;jettySize=auto;html=1;" edge="1" parent="1" source="BUDFuWpq01-Rm1eVjWCR-9" target="BUDFuWpq01-Rm1eVjWCR-4">
          <mxGeometry relative="1" as="geometry" />
        </mxCell>
        <mxCell id="BUDFuWpq01-Rm1eVjWCR-9" value="*id" style="text;html=1;strokeColor=none;fillColor=none;align=center;verticalAlign=middle;whiteSpace=wrap;rounded=0;" vertex="1" parent="1">
          <mxGeometry x="330" y="210" width="120" height="20" as="geometry" />
        </mxCell>
        <mxCell id="BUDFuWpq01-Rm1eVjWCR-10" value="id_cat" style="text;html=1;strokeColor=none;fillColor=none;align=center;verticalAlign=middle;whiteSpace=wrap;rounded=0;" vertex="1" parent="1">
          <mxGeometry x="330" y="230" width="120" height="20" as="geometry" />
        </mxCell>
        <mxCell id="BUDFuWpq01-Rm1eVjWCR-11" value="name" style="text;html=1;strokeColor=none;fillColor=none;align=center;verticalAlign=middle;whiteSpace=wrap;rounded=0;" vertex="1" parent="1">
          <mxGeometry x="330" y="250" width="120" height="20" as="geometry" />
        </mxCell>
        <mxCell id="BUDFuWpq01-Rm1eVjWCR-13" value="descr" style="text;html=1;strokeColor=none;fillColor=none;align=center;verticalAlign=middle;whiteSpace=wrap;rounded=0;" vertex="1" parent="1">
          <mxGeometry x="330" y="270" width="120" height="20" as="geometry" />
        </mxCell>
        <mxCell id="BUDFuWpq01-Rm1eVjWCR-14" value="img" style="text;html=1;strokeColor=none;fillColor=none;align=center;verticalAlign=middle;whiteSpace=wrap;rounded=0;" vertex="1" parent="1">
          <mxGeometry x="330" y="290" width="120" height="20" as="geometry" />
        </mxCell>
        <mxCell id="BUDFuWpq01-Rm1eVjWCR-15" value="price" style="text;html=1;strokeColor=none;fillColor=none;align=center;verticalAlign=middle;whiteSpace=wrap;rounded=0;" vertex="1" parent="1">
          <mxGeometry x="330" y="310" width="120" height="20" as="geometry" />
        </mxCell>
      </root>
    </mxGraphModel>
  </diagram>
</mxfile>
